<svg width="444" height="440" viewBox="0 0 444 440" fill="none" xmlns="http://www.w3.org/2000/svg">
<path opacity="0.6" d="M424.471 290.067L423.59 293.115C422.563 296.665 422.556 300.433 423.57 303.988L424.44 307.038L421.393 306.157C417.842 305.13 414.074 305.123 410.52 306.136L407.469 307.006L408.351 303.959C409.378 300.409 409.385 296.641 408.371 293.086L407.501 290.036L410.548 290.917C414.099 291.944 417.867 291.951 421.421 290.938L424.471 290.067Z" fill="white"/>
<circle opacity="0.6" cx="437.591" cy="299.041" r="4" transform="rotate(35.1066 437.591 299.041)" fill="white"/>
<path opacity="0.6" d="M26.129 30.7486L28.8332 26.1929C34.1291 17.1965 35.6973 13.8261 33.7887 8.84162C32.088 4.40011 27.1359 2.18542 22.7779 3.85413C21.5006 4.34323 20.4119 5.07941 19.5117 6.06267L19.5049 6.06529C18.5058 7.15828 17.7356 8.56274 17.2012 10.276C15.5979 9.34136 14.0404 8.81225 12.5258 8.68177C11.2371 8.56856 9.99096 8.75039 8.76827 9.21857C4.41032 10.8873 2.20388 15.843 3.90457 20.2845C5.81319 25.2691 9.23137 26.7301 19.1815 29.8886L24.2369 31.4731C24.9581 31.6998 25.7436 31.399 26.129 30.7486Z" fill="white"/>
<path opacity="0.6" d="M180.126 412.488L182.59 414.485C185.462 416.812 188.93 418.285 192.599 418.733L195.748 419.119L193.75 421.583C191.423 424.454 189.951 427.923 189.502 431.591L189.117 434.74L186.653 432.743C183.781 430.415 180.313 428.943 176.644 428.494L173.495 428.109L175.493 425.645C177.82 422.773 179.292 419.305 179.741 415.636L180.126 412.488Z" fill="white"/>
<circle opacity="0.6" cx="220.461" cy="428.454" r="5" fill="white"/>
<path opacity="0.6" d="M250.091 415.656L254.508 412.73C263.191 406.934 266.069 404.582 266.519 399.263C266.921 394.524 263.425 390.376 258.775 389.982C257.413 389.867 256.112 390.056 254.874 390.55L254.866 390.549C253.491 391.098 252.187 392.028 250.96 393.338C249.923 391.799 248.751 390.645 247.444 389.868C246.333 389.206 245.132 388.827 243.827 388.717C239.177 388.323 235.035 391.825 234.633 396.564C234.183 401.883 236.625 404.686 244.21 411.859L248.073 415.485C248.623 416.003 249.461 416.074 250.091 415.656Z" fill="white"/>
<path opacity="0.6" d="M269.022 14.2277L271.105 14.5915C273.532 15.0155 276.03 14.7477 278.312 13.8189L280.271 13.0217L279.907 15.1049C279.483 17.5323 279.751 20.0299 280.68 22.3123L281.477 24.271L279.394 23.9071C276.966 23.4832 274.469 23.751 272.186 24.6798L270.228 25.477L270.591 23.3938C271.015 20.9664 270.748 18.4687 269.819 16.1864L269.022 14.2277Z" fill="white"/>
<path opacity="0.6" d="M309.951 37.4939L312.637 34.5661C317.909 28.7777 319.579 26.5451 318.945 22.5925C318.381 19.0705 315.087 16.6826 311.631 17.2366C310.618 17.399 309.705 17.7718 308.893 18.355L308.888 18.3558C307.986 19.0043 307.205 19.9167 306.549 21.0921C305.516 20.1592 304.454 19.531 303.362 19.2021C302.434 18.9207 301.491 18.8623 300.522 19.0177C297.066 19.5718 294.683 22.8699 295.248 26.3919C295.882 30.3445 298.166 31.9431 304.983 35.7932L308.45 37.7344C308.945 38.0119 309.568 37.912 309.951 37.4939Z" fill="white"/>
</svg>
