<svg width="37" height="36" viewBox="0 0 37 36" fill="none" xmlns="http://www.w3.org/2000/svg">
<path d="M0 17.28C0 9.1332 0 5.0616 2.5747 2.5308C5.14939 0 9.29161 0 17.5797 0H19.0447C27.3328 0 31.475 0 34.0497 2.5308C36.6244 5.0616 36.6244 9.1332 36.6244 17.28V18.72C36.6244 26.8668 36.6244 30.9384 34.0497 33.4692C31.475 36 27.3328 36 19.0447 36H17.5797C9.29161 36 5.14939 36 2.5747 33.4692C0 30.9384 0 26.8668 0 18.72V17.28Z" fill="#0077FF"/>
<path d="M14.5581 9.3528C15.9389 9.3528 17.1914 9.6876 18.3048 10.2708C19.4219 9.684 20.6817 9.3528 22.0698 9.3528C26.3695 9.3528 29.988 12.7692 29.988 17.1252C29.988 17.8848 29.9038 18.5976 29.739 19.2816L36.6134 13.7952C36.5621 7.9164 36.2288 4.6728 34.0496 2.5308C31.4749 0 27.3327 0 19.0446 0H17.5797C9.29155 0 5.14933 0 2.57463 2.5308C0.395482 4.6728 0.0621995 7.9164 0.0109253 13.7952L6.89265 19.2852C6.72418 18.6012 6.63994 17.8848 6.63994 17.1252C6.63994 12.7692 10.2584 9.3528 14.5581 9.3528Z" fill="#FF22A6"/>
<path d="M18.8213 25.6821L20.9015 24.0945C24.9888 20.9517 26.3256 19.7025 26.3256 17.1249C26.3256 14.8281 24.4065 12.9741 22.0698 12.9741C21.385 12.9741 20.744 13.1181 20.1471 13.4061H20.1434C19.4805 13.7265 18.8689 14.2269 18.3122 14.9073C17.7299 14.2089 17.0963 13.7013 16.4114 13.3809C15.8291 13.1073 15.2138 12.9741 14.5582 12.9741C12.2215 12.9741 10.3024 14.8281 10.3024 17.1249C10.3024 19.7025 11.6392 20.9517 15.7265 24.0945L17.8068 25.6821C18.1034 25.9089 18.5246 25.9089 18.8213 25.6821Z" fill="#FF22A6"/>
<path d="M22.0698 9.35297C20.6817 9.35297 19.4219 9.68417 18.3048 10.271C17.1914 9.68777 15.9389 9.35297 14.5581 9.35297C10.2584 9.35297 6.63995 12.7694 6.63995 17.1254C6.63995 17.8886 6.72419 18.6014 6.89266 19.2854C7.18932 20.4986 7.757 21.611 8.63965 22.6838C9.79698 24.0914 11.5147 25.445 13.4777 26.9534L13.4887 26.9606H13.4924L15.5726 28.5482C17.1878 29.7794 19.4438 29.7794 21.059 28.5482L23.1392 26.9606L23.1502 26.9534C25.1133 25.445 26.831 24.0914 27.9883 22.6838C28.871 21.611 29.4423 20.495 29.739 19.2818C29.9038 18.5978 29.988 17.885 29.988 17.1254C29.988 12.7694 26.3695 9.35297 22.0698 9.35297ZM14.5581 12.9746C15.2137 12.9746 15.829 13.1078 16.4113 13.3814C17.0962 13.7018 17.7298 14.2094 18.3122 14.9078C18.8688 14.2274 19.4805 13.727 20.1434 13.4066H20.147C20.744 13.1186 21.3849 12.9746 22.0698 12.9746C24.4064 12.9746 26.3256 14.8286 26.3256 17.1254C26.3256 19.703 24.9888 20.9522 20.9015 24.095L18.8212 25.6826C18.5246 25.9094 18.1034 25.9094 17.8067 25.6826L15.7265 24.095C11.6392 20.9522 10.3024 19.703 10.3024 17.1254C10.3024 14.8286 12.2215 12.9746 14.5581 12.9746Z" fill="white"/>
</svg>
