<svg width="25" height="24" viewBox="0 0 25 24" fill="none" xmlns="http://www.w3.org/2000/svg">
<path fill-rule="evenodd" clip-rule="evenodd" d="M2.18706 1.68706C0.5 3.37413 0.5 6.08942 0.5 11.52V12.48C0.5 17.9106 0.5 20.6259 2.18706 22.3129C3.87413 24 6.58942 24 12.02 24H12.98C18.4106 24 21.1259 24 22.8129 22.3129C24.5 20.6259 24.5 17.9106 24.5 12.48V11.52C24.5 6.08942 24.5 3.37413 22.8129 1.68706C21.1259 0 18.4106 0 12.98 0H12.02C6.58942 0 3.87413 0 2.18706 1.68706ZM4.55004 7.30005C4.68004 13.54 7.80001 17.29 13.27 17.29H13.5801V13.72C15.5901 13.92 17.11 15.39 17.72 17.29H20.56C19.78 14.45 17.7299 12.88 16.4499 12.28C17.7299 11.54 19.5299 9.74005 19.9599 7.30005H17.3799C16.8199 9.28005 15.1601 11.08 13.5801 11.25V7.30005H11V14.22C9.39999 13.82 7.38003 11.88 7.29003 7.30005H4.55004Z" fill="#0077FF"/>
</svg>
