<svg width="56" height="56" viewBox="0 0 56 56" fill="none" xmlns="http://www.w3.org/2000/svg">
<path d="M28 52.5C41.531 52.5 52.5 41.531 52.5 28C52.5 14.469 41.531 3.5 28 3.5C14.469 3.5 3.5 14.469 3.5 28C3.5 41.531 14.469 52.5 28 52.5Z" fill="url(#paint0_linear_30_291)"/>
<path d="M40.2265 17.8654C40.4446 16.4558 39.1044 15.3432 37.8511 15.8935L12.8884 26.8534C11.9896 27.248 12.0554 28.6095 12.9876 28.9063L18.1354 30.5457C19.118 30.8586 20.1819 30.6967 21.0399 30.104L32.6462 22.0855C32.9962 21.8437 33.3777 22.3414 33.0787 22.6495L24.7242 31.263C23.9137 32.0987 24.0746 33.5146 25.0495 34.1259L34.4032 39.9915C35.4524 40.6494 36.802 39.9886 36.9981 38.7207L40.2265 17.8654Z" fill="white"/>
<defs>
<linearGradient id="paint0_linear_30_291" x1="28" y1="3.5" x2="28" y2="52.5" gradientUnits="userSpaceOnUse">
<stop stop-color="#37BBFE"/>
<stop offset="1" stop-color="#007DBB"/>
</linearGradient>
</defs>
</svg>
