<svg width="48" height="48" viewBox="0 0 48 48" fill="none" xmlns="http://www.w3.org/2000/svg">
<path d="M47.9867 22.9189C47.7611 16.7887 45.154 10.982 40.7107 6.71188C36.2674 2.44179 30.3315 0.0362704 24.1416 6.36688e-06H24.0251C19.8567 -0.00301564 15.76 1.0698 12.1369 3.11116C8.51383 5.15403 5.48987 8.09595 3.36234 11.6483C1.23481 15.2007 0.0769181 19.2411 0.00370955 23.3707C-0.069499 27.5002 0.941974 31.5784 2.94102 35.2033L0.817968 47.7915C0.81498 47.8172 0.817968 47.8444 0.823944 47.8685C0.831414 47.8927 0.844861 47.9169 0.861295 47.9365C0.879224 47.9562 0.90014 47.9713 0.924045 47.9834C0.94795 47.9955 0.973348 48 1.00024 48H1.0361L13.5996 45.2303C16.8462 46.7746 20.4005 47.5769 24.0012 47.5754H24.687C27.8543 47.4863 30.9724 46.7746 33.8619 45.4857C36.7514 44.1953 39.3541 42.3504 41.5189 40.0582C43.6853 37.766 45.3706 35.0704 46.4807 32.1299C47.5908 29.188 48.1002 26.0572 47.9837 22.9189H47.9867ZM24.5704 43.4368H24.0027C20.8203 43.4413 17.6828 42.6858 14.8576 41.2368L14.2151 40.9043L5.69456 42.8989L7.26779 34.3557L6.90324 33.7422C5.15968 30.7957 4.21992 27.4489 4.17809 24.0325C4.13626 20.6161 4.99235 17.2481 6.6627 14.2593C8.33305 11.2706 10.7609 8.76533 13.7057 6.9899C16.6504 5.21447 20.0106 4.2293 23.4573 4.1326H24.034C29.2363 4.14771 34.225 6.18756 37.9243 9.81396C41.6235 13.4389 43.7376 18.3602 43.8108 23.5157C43.884 28.6713 41.9119 33.6485 38.3172 37.3761C34.7225 41.1038 29.7951 43.2827 24.5943 43.4428L24.5719 43.4353L24.5704 43.4368Z" fill="#25D366"/>
<path d="M15.6598 12.3025C15.364 12.3086 15.0711 12.3735 14.7992 12.4929C14.5273 12.6123 14.2838 12.7845 14.0821 13.0006C13.5098 13.5823 11.9112 14.9815 11.8186 17.9204C11.7259 20.8593 13.7982 23.7665 14.088 24.1745C14.3779 24.5824 18.0488 30.9302 24.0952 33.5034C27.6495 35.0204 29.2078 35.2818 30.2178 35.2818C30.6347 35.2818 30.9484 35.238 31.2771 35.2184C32.3842 35.1504 34.8852 33.8811 35.4306 32.5016C35.9759 31.122 36.0118 29.9148 35.8683 29.6745C35.7249 29.4328 35.3305 29.259 34.7358 28.9507C34.1412 28.6425 31.2278 27.0983 30.681 26.8807C30.4778 26.787 30.2597 26.7311 30.0355 26.7145C29.8906 26.722 29.7487 26.7643 29.6232 26.8384C29.4977 26.9124 29.3931 27.0151 29.3169 27.1391C28.8298 27.7404 27.7123 29.0444 27.3373 29.4207C27.2551 29.5143 27.155 29.5899 27.0415 29.6413C26.9279 29.6942 26.8054 29.7214 26.6799 29.7244C26.4498 29.7138 26.2242 29.6549 26.0195 29.5476C24.2551 28.8042 22.646 27.7404 21.2744 26.4107C19.994 25.1596 18.9078 23.7287 18.0518 22.1618C17.7216 21.5544 18.0518 21.2401 18.3536 20.956C18.6553 20.672 18.9796 20.2776 19.2903 19.9376C19.5458 19.6475 19.7595 19.3226 19.9238 18.9721C20.009 18.8104 20.0523 18.6291 20.0493 18.4463C20.0463 18.2634 19.997 18.0836 19.9074 17.925C19.7639 17.6212 18.6897 14.6325 18.1862 13.4328C17.7768 12.4068 17.2898 12.3735 16.864 12.3418C16.5129 12.3176 16.111 12.3055 15.7106 12.2935H15.6598" fill="#25D366"/>
</svg>
