<svg width="21" height="20" viewBox="0 0 21 20" fill="none" xmlns="http://www.w3.org/2000/svg">
<path d="M14.7 19H5.43137C4.82555 19 4.52265 19 4.38238 18.8802C4.26068 18.7763 4.19609 18.6203 4.20865 18.4608C4.22312 18.2769 4.43731 18.0627 4.86569 17.6343L13.3686 9.13137C13.7646 8.73536 13.9627 8.53735 14.191 8.46316C14.3918 8.3979 14.6082 8.3979 14.809 8.46316C15.0373 8.53735 15.2354 8.73535 15.6314 9.13137L19.5 13V14.2M14.7 19C16.3802 19 17.2202 19 17.862 18.673C18.4265 18.3854 18.8854 17.9265 19.173 17.362C19.5 16.7202 19.5 15.8802 19.5 14.2M14.7 19H6.3C4.61984 19 3.77976 19 3.13803 18.673C2.57354 18.3854 2.1146 17.9265 1.82698 17.362C1.5 16.7202 1.5 15.8802 1.5 14.2V5.8C1.5 4.11984 1.5 3.27976 1.82698 2.63803C2.1146 2.07354 2.57354 1.6146 3.13803 1.32698C3.77976 1 4.61984 1 6.3 1H14.7C16.3802 1 17.2202 1 17.862 1.32698C18.4265 1.6146 18.8854 2.07354 19.173 2.63803C19.5 3.27976 19.5 4.11984 19.5 5.8V14.2M9 6.5C9 7.60457 8.10457 8.5 7 8.5C5.89543 8.5 5 7.60457 5 6.5C5 5.39543 5.89543 4.5 7 4.5C8.10457 4.5 9 5.39543 9 6.5Z" stroke="black" stroke-width="2" stroke-linecap="round" stroke-linejoin="round"/>
</svg>
