<svg width="240" height="36" viewBox="0 0 240 36" fill="none" xmlns="http://www.w3.org/2000/svg">
<path d="M59.7269 26.9999H55.1814L48.7139 9.00043H52.0645L57.2333 23.8341H57.7528L63.1035 9.00043H66.4022L59.7269 26.9999Z" fill="black"/>
<path d="M75.056 17.681L83.4716 26.9999H79.3677L72.5105 19.2895H71.7313V26.9999H68.6144V9.00043H71.7313V16.3279H72.4846L78.9781 9.00043H82.8222L75.056 17.681Z" fill="black"/>
<path d="M100.158 17.681C101.076 17.9874 101.829 18.498 102.418 19.2129C103.024 19.9278 103.327 20.8129 103.327 21.8682C103.327 22.8724 103.05 23.7915 102.496 24.6255C101.959 25.4425 101.171 26.0893 100.132 26.5659C99.1102 27.0255 97.8981 27.2552 96.4955 27.2552C94.66 27.2552 93.1016 26.8127 91.8202 25.9276C90.5388 25.0255 89.7076 23.8341 89.3267 22.3532L92.3137 21.8682C92.7466 22.7362 93.2834 23.383 93.9241 23.8085C94.5821 24.234 95.4306 24.4468 96.4695 24.4468C97.6124 24.4468 98.5042 24.2085 99.1449 23.7319C99.8029 23.2383 100.132 22.5745 100.132 21.7405C100.132 20.9746 99.8115 20.3533 99.1708 19.8767C98.5301 19.4001 97.5604 19.1618 96.2617 19.1618H93.9501V16.4811H96.2617C97.3007 16.4811 98.1492 16.2513 98.8072 15.7917C99.4825 15.3322 99.8202 14.7364 99.8202 14.0045C99.8202 13.2897 99.4998 12.7025 98.8592 12.2429C98.2358 11.7833 97.4479 11.5535 96.4955 11.5535C95.6124 11.5535 94.8418 11.7578 94.1838 12.1663C93.5431 12.5748 93.0496 13.145 92.7033 13.8769L89.7682 13.3918C90.305 11.8769 91.1622 10.728 92.3397 9.94508C93.5172 9.14511 94.9284 8.74512 96.5734 8.74512C97.8029 8.74512 98.9024 8.95788 99.8721 9.3834C100.842 9.80892 101.595 10.4046 102.132 11.1706C102.686 11.9365 102.963 12.8046 102.963 13.7748C102.963 14.762 102.703 15.596 102.184 16.2768C101.682 16.9406 101.006 17.4087 100.158 17.681Z" fill="black"/>
<path d="M115.213 18.9576V13.7237H118.2V26.9999H115.213V21.6384H109.161V26.9999H106.174V13.7237H109.161V18.9576H115.213Z" fill="black"/>
<path d="M127.077 13.4684C128.809 13.4684 130.168 14.0045 131.155 15.0769C132.16 16.1321 132.662 17.6215 132.662 19.5448V26.9999H130.454L129.831 24.9064C129.45 25.5361 128.887 26.0893 128.142 26.5659C127.398 27.0255 126.515 27.2552 125.493 27.2552C124.593 27.2552 123.779 27.0765 123.052 26.7191C122.342 26.3616 121.787 25.8595 121.389 25.2127C120.991 24.566 120.792 23.8341 120.792 23.0171C120.792 21.7575 121.294 20.7533 122.298 20.0044C123.32 19.2384 124.8 18.8555 126.74 18.8555H129.649C129.58 17.9704 129.303 17.2725 128.818 16.7619C128.35 16.2343 127.718 15.9704 126.922 15.9704C126.281 15.9704 125.727 16.1236 125.259 16.43C124.792 16.7364 124.445 17.1108 124.22 17.5534L121.467 17.0938C121.796 15.9704 122.471 15.0854 123.493 14.4386C124.532 13.7918 125.727 13.4684 127.077 13.4684ZM126.194 24.7787C127.233 24.7787 128.073 24.4468 128.714 23.783C129.355 23.1192 129.675 22.2426 129.675 21.1533H126.844C124.818 21.1533 123.805 21.732 123.805 22.8894C123.805 23.4681 124.021 23.9277 124.454 24.2681C124.887 24.6085 125.467 24.7787 126.194 24.7787Z" fill="black"/>
<path d="M148.214 26.9999H144.292L139.617 21.715H138.889V26.9999H135.902V13.7237H138.889V18.881H139.617L144.136 13.7237H147.695L142.006 20.1065L148.214 26.9999Z" fill="black"/>
<path d="M155.838 27.2552C154.453 27.2552 153.206 26.9659 152.098 26.3872C151.007 25.7914 150.15 24.9745 149.527 23.9362C148.92 22.8809 148.617 21.6894 148.617 20.3618C148.617 19.0342 148.92 17.8512 149.527 16.813C150.15 15.7577 151.007 14.9407 152.098 14.362C153.206 13.7663 154.453 13.4684 155.838 13.4684C157.224 13.4684 158.462 13.7663 159.553 14.362C160.661 14.9407 161.518 15.7577 162.124 16.813C162.747 17.8512 163.059 19.0342 163.059 20.3618C163.059 21.6894 162.747 22.8809 162.124 23.9362C161.518 24.9745 160.661 25.7914 159.553 26.3872C158.462 26.9659 157.224 27.2552 155.838 27.2552ZM155.838 24.5745C157.05 24.5745 158.037 24.1915 158.799 23.4256C159.561 22.6426 159.942 21.6214 159.942 20.3618C159.942 19.1023 159.561 18.0895 158.799 17.3236C158.037 16.5406 157.05 16.1492 155.838 16.1492C154.626 16.1492 153.639 16.5406 152.877 17.3236C152.115 18.0895 151.734 19.1023 151.734 20.3618C151.734 21.6214 152.115 22.6426 152.877 23.4256C153.639 24.1915 154.626 24.5745 155.838 24.5745Z" fill="black"/>
<path d="M168.513 26.9999H165.656V13.7237H170.305L173.422 22.8383H173.838L177.084 13.7237H181.63V26.9999H178.773V17.1449H178.357L174.825 26.9999H172.305L168.929 17.1449H168.513V26.9999Z" fill="black"/>
<path d="M191.269 27.2552C189.919 27.2552 188.706 26.9659 187.633 26.3872C186.559 25.7914 185.719 24.9745 185.113 23.9362C184.525 22.8809 184.23 21.6894 184.23 20.3618C184.23 19.0342 184.525 17.8512 185.113 16.813C185.719 15.7577 186.559 14.9407 187.633 14.362C188.706 13.7663 189.919 13.4684 191.269 13.4684C192.758 13.4684 194.074 13.8343 195.217 14.5662C196.377 15.2811 197.2 16.3024 197.685 17.63L194.88 18.0895C194.585 17.5108 194.126 17.0428 193.503 16.6853C192.897 16.3279 192.213 16.1492 191.451 16.1492C190.239 16.1492 189.252 16.5406 188.49 17.3236C187.728 18.1066 187.347 19.1193 187.347 20.3618C187.347 21.6043 187.728 22.6171 188.49 23.4C189.252 24.183 190.239 24.5745 191.451 24.5745C192.248 24.5745 192.958 24.3957 193.581 24.0383C194.204 23.6638 194.672 23.1788 194.984 22.583L197.789 23.0426C197.304 24.3872 196.464 25.4255 195.269 26.1574C194.074 26.8893 192.741 27.2552 191.269 27.2552Z" fill="black"/>
<path d="M205.984 26.9999H202.997V16.4045H198.321V13.7237H210.659V16.4045H205.984V26.9999Z" fill="black"/>
<path d="M222.032 20.1065C222.725 20.3278 223.296 20.7278 223.747 21.3065C224.197 21.8682 224.422 22.5405 224.422 23.3234C224.422 24.0213 224.214 24.6511 223.799 25.2127C223.383 25.7744 222.794 26.217 222.032 26.5404C221.288 26.8467 220.439 26.9999 219.487 26.9999H212.734V13.7237H219.201C220.119 13.7237 220.942 13.8769 221.669 14.1833C222.396 14.4896 222.959 14.9152 223.357 15.4598C223.755 15.9875 223.954 16.6002 223.954 17.2981C223.954 18.5746 223.314 19.5108 222.032 20.1065ZM215.721 16.1492V19.0342H219.201C219.721 19.0342 220.145 18.9065 220.474 18.6512C220.803 18.3789 220.967 18.03 220.967 17.6044C220.967 17.1789 220.803 16.83 220.474 16.5577C220.145 16.2853 219.721 16.1492 219.201 16.1492H215.721ZM219.487 24.5745C220.076 24.5745 220.543 24.4298 220.89 24.1404C221.253 23.8341 221.435 23.4426 221.435 22.966C221.435 22.4724 221.253 22.0809 220.89 21.7916C220.543 21.4852 220.076 21.332 219.487 21.332H215.721V24.5745H219.487Z" fill="black"/>
<path d="M232.648 13.4684C234.379 13.4684 235.739 14.0045 236.726 15.0769C237.73 16.1321 238.232 17.6215 238.232 19.5448V26.9999H236.024L235.401 24.9064C235.02 25.5361 234.457 26.0893 233.713 26.5659C232.968 27.0255 232.085 27.2552 231.063 27.2552C230.163 27.2552 229.349 27.0765 228.622 26.7191C227.912 26.3616 227.358 25.8595 226.959 25.2127C226.561 24.566 226.362 23.8341 226.362 23.0171C226.362 21.7575 226.864 20.7533 227.868 20.0044C228.89 19.2384 230.371 18.8555 232.31 18.8555H235.219C235.15 17.9704 234.873 17.2725 234.388 16.7619C233.92 16.2343 233.288 15.9704 232.492 15.9704C231.851 15.9704 231.297 16.1236 230.83 16.43C230.362 16.7364 230.016 17.1108 229.791 17.5534L227.037 17.0938C227.366 15.9704 228.042 15.0854 229.063 14.4386C230.102 13.7918 231.297 13.4684 232.648 13.4684ZM231.765 24.7787C232.804 24.7787 233.643 24.4468 234.284 23.783C234.925 23.1192 235.245 22.2426 235.245 21.1533H232.414C230.388 21.1533 229.375 21.732 229.375 22.8894C229.375 23.4681 229.591 23.9277 230.024 24.2681C230.457 24.6085 231.037 24.7787 231.765 24.7787Z" fill="black"/>
<path d="M0 17.28C0 9.1332 0 5.0616 2.5747 2.5308C5.14939 0 9.29161 0 17.5797 0H19.0447C27.3328 0 31.475 0 34.0497 2.5308C36.6244 5.0616 36.6244 9.1332 36.6244 17.28V18.72C36.6244 26.8668 36.6244 30.9384 34.0497 33.4692C31.475 36 27.3328 36 19.0447 36H17.5797C9.29161 36 5.14939 36 2.5747 33.4692C0 30.9384 0 26.8668 0 18.72V17.28Z" fill="#0077FF"/>
<path d="M14.558 9.3528C15.9387 9.3528 17.1912 9.6876 18.3046 10.2708C19.4217 9.684 20.6816 9.3528 22.0696 9.3528C26.3693 9.3528 29.9878 12.7692 29.9878 17.1252C29.9878 17.8848 29.9036 18.5976 29.7388 19.2816L36.6132 13.7952C36.5619 7.9164 36.2286 4.6728 34.0495 2.5308C31.4748 0 27.3325 0 19.0444 0H17.5795C9.29137 0 5.14915 0 2.57445 2.5308C0.395298 4.6728 0.0620164 7.9164 0.0107422 13.7952L6.89247 19.2852C6.72399 18.6012 6.63976 17.8848 6.63976 17.1252C6.63976 12.7692 10.2583 9.3528 14.558 9.3528Z" fill="#FF22A6"/>
<path d="M18.8216 25.6821L20.9018 24.0945C24.9891 20.9517 26.3259 19.7025 26.3259 17.1249C26.3259 14.8281 24.4068 12.9741 22.0702 12.9741C21.3853 12.9741 20.7444 13.1181 20.1474 13.4061H20.1437C19.4808 13.7265 18.8692 14.2269 18.3125 14.9073C17.7302 14.2089 17.0966 13.7013 16.4117 13.3809C15.8294 13.1073 15.2141 12.9741 14.5585 12.9741C12.2219 12.9741 10.3027 14.8281 10.3027 17.1249C10.3027 19.7025 11.6395 20.9517 15.7268 24.0945L17.8071 25.6821C18.1037 25.9089 18.5249 25.9089 18.8216 25.6821Z" fill="#FF22A6"/>
<path d="M22.0695 9.35303C20.6814 9.35303 19.4216 9.68423 18.3045 10.271C17.1911 9.68783 15.9386 9.35303 14.5578 9.35303C10.2581 9.35303 6.63965 12.7694 6.63965 17.1254C6.63965 17.8886 6.72388 18.6014 6.89236 19.2854C7.18901 20.4986 7.75669 21.611 8.63934 22.6838C9.79667 24.0914 11.5144 25.445 13.4774 26.9534L13.4884 26.9606H13.4921L15.5723 28.5482C17.1875 29.7794 19.4435 29.7794 21.0587 28.5482L23.1389 26.9606L23.1499 26.9534C25.113 25.445 26.8307 24.0914 27.988 22.6838C28.8707 21.611 29.442 20.495 29.7387 19.2818C29.9035 18.5978 29.9877 17.885 29.9877 17.1254C29.9877 12.7694 26.3692 9.35303 22.0695 9.35303ZM14.5578 12.9746C15.2134 12.9746 15.8287 13.1078 16.411 13.3814C17.0959 13.7018 17.7295 14.2094 18.3118 14.9078C18.8685 14.2274 19.4802 13.727 20.1431 13.4066H20.1467C20.7437 13.1186 21.3846 12.9746 22.0695 12.9746C24.4061 12.9746 26.3253 14.8286 26.3253 17.1254C26.3253 19.703 24.9885 20.9522 20.9012 24.095L18.8209 25.6826C18.5243 25.9094 18.1031 25.9094 17.8064 25.6826L15.7262 24.095C11.6389 20.9522 10.3021 19.703 10.3021 17.1254C10.3021 14.8286 12.2212 12.9746 14.5578 12.9746Z" fill="white"/>
</svg>
