<svg width="240" height="36" viewBox="0 0 240 36" fill="none" xmlns="http://www.w3.org/2000/svg">
<path d="M59.7271 27H55.1816L48.7141 9.00049H52.0648L57.2336 23.8341H57.7531L63.1037 9.00049H66.4024L59.7271 27Z" fill="white"/>
<path d="M75.0562 17.6811L83.4718 27H79.3679L72.5108 19.2896H71.7316V27H68.6147V9.00049H71.7316V16.3279H72.4848L78.9783 9.00049H82.8225L75.0562 17.6811Z" fill="white"/>
<path d="M100.158 17.6811C101.076 17.9875 101.829 18.4981 102.418 19.213C103.024 19.9278 103.327 20.8129 103.327 21.8682C103.327 22.8724 103.05 23.7916 102.496 24.6256C101.959 25.4426 101.171 26.0894 100.132 26.566C99.1105 27.0255 97.8984 27.2553 96.4958 27.2553C94.6603 27.2553 93.1018 26.8128 91.8204 25.9277C90.539 25.0256 89.7079 23.8341 89.3269 22.3533L92.3139 21.8682C92.7468 22.7363 93.2836 23.3831 93.9243 23.8086C94.5823 24.2341 95.4308 24.4469 96.4698 24.4469C97.6126 24.4469 98.5044 24.2086 99.1451 23.732C99.8031 23.2384 100.132 22.5746 100.132 21.7406C100.132 20.9746 99.8118 20.3534 99.1711 19.8768C98.5304 19.4002 97.5607 19.1619 96.262 19.1619H93.9503V16.4811H96.262C97.301 16.4811 98.1494 16.2514 98.8074 15.7918C99.4828 15.3322 99.8204 14.7365 99.8204 14.0046C99.8204 13.2897 99.5001 12.7025 98.8594 12.243C98.236 11.7834 97.4481 11.5536 96.4958 11.5536C95.6126 11.5536 94.8421 11.7579 94.1841 12.1664C93.5434 12.5749 93.0499 13.1451 92.7036 13.877L89.7685 13.3919C90.3053 11.877 91.1624 10.7281 92.3399 9.94514C93.5174 9.14517 94.9287 8.74518 96.5737 8.74518C97.8031 8.74518 98.9027 8.95794 99.8724 9.38346C100.842 9.80898 101.595 10.4047 102.132 11.1706C102.686 11.9366 102.963 12.8046 102.963 13.7748C102.963 14.762 102.704 15.5961 102.184 16.2769C101.682 16.9407 101.007 17.4088 100.158 17.6811Z" fill="white"/>
<path d="M115.213 18.9577V13.7238H118.201V27H115.213V21.6384H109.162V27H106.175V13.7238H109.162V18.9577H115.213Z" fill="white"/>
<path d="M127.078 13.4685C128.809 13.4685 130.169 14.0046 131.156 15.0769C132.16 16.1322 132.662 17.6215 132.662 19.5449V27H130.454L129.831 24.9064C129.45 25.5362 128.887 26.0894 128.143 26.566C127.398 27.0255 126.515 27.2553 125.493 27.2553C124.593 27.2553 123.779 27.0766 123.052 26.7191C122.342 26.3617 121.788 25.8596 121.389 25.2128C120.991 24.566 120.792 23.8341 120.792 23.0171C120.792 21.7576 121.294 20.7534 122.299 20.0044C123.32 19.2385 124.801 18.8555 126.74 18.8555H129.649C129.58 17.9705 129.303 17.2726 128.818 16.762C128.35 16.2343 127.718 15.9705 126.922 15.9705C126.281 15.9705 125.727 16.1237 125.26 16.4301C124.792 16.7364 124.446 17.1109 124.221 17.5534L121.467 17.0939C121.796 15.9705 122.472 15.0854 123.493 14.4386C124.532 13.7918 125.727 13.4685 127.078 13.4685ZM126.195 24.7788C127.234 24.7788 128.073 24.4469 128.714 23.7831C129.355 23.1192 129.675 22.2427 129.675 21.1533H126.844C124.818 21.1533 123.805 21.732 123.805 22.8895C123.805 23.4682 124.021 23.9277 124.454 24.2681C124.887 24.6086 125.467 24.7788 126.195 24.7788Z" fill="white"/>
<path d="M148.214 27H144.292L139.617 21.715H138.89V27H135.903V13.7238H138.89V18.8811H139.617L144.136 13.7238H147.695L142.007 20.1066L148.214 27Z" fill="white"/>
<path d="M155.838 27.2553C154.453 27.2553 153.206 26.9659 152.098 26.3872C151.007 25.7915 150.15 24.9745 149.527 23.9362C148.921 22.881 148.618 21.6895 148.618 20.3619C148.618 19.0343 148.921 17.8513 149.527 16.813C150.15 15.7577 151.007 14.9407 152.098 14.362C153.206 13.7663 154.453 13.4685 155.838 13.4685C157.224 13.4685 158.462 13.7663 159.553 14.362C160.661 14.9407 161.518 15.7577 162.124 16.813C162.748 17.8513 163.059 19.0343 163.059 20.3619C163.059 21.6895 162.748 22.881 162.124 23.9362C161.518 24.9745 160.661 25.7915 159.553 26.3872C158.462 26.9659 157.224 27.2553 155.838 27.2553ZM155.838 24.5745C157.051 24.5745 158.038 24.1916 158.8 23.4256C159.561 22.6427 159.942 21.6214 159.942 20.3619C159.942 19.1023 159.561 18.0896 158.8 17.3237C158.038 16.5407 157.051 16.1492 155.838 16.1492C154.626 16.1492 153.639 16.5407 152.877 17.3237C152.116 18.0896 151.735 19.1023 151.735 20.3619C151.735 21.6214 152.116 22.6427 152.877 23.4256C153.639 24.1916 154.626 24.5745 155.838 24.5745Z" fill="white"/>
<path d="M168.513 27H165.656V13.7238H170.305L173.422 22.8384H173.838L177.085 13.7238H181.63V27H178.773V17.1449H178.357L174.825 27H172.305L168.929 17.1449H168.513V27Z" fill="white"/>
<path d="M191.269 27.2553C189.919 27.2553 188.707 26.9659 187.633 26.3872C186.56 25.7915 185.72 24.9745 185.114 23.9362C184.525 22.881 184.231 21.6895 184.231 20.3619C184.231 19.0343 184.525 17.8513 185.114 16.813C185.72 15.7577 186.56 14.9407 187.633 14.362C188.707 13.7663 189.919 13.4685 191.269 13.4685C192.759 13.4685 194.075 13.8344 195.218 14.5663C196.378 15.2812 197.2 16.3024 197.685 17.63L194.88 18.0896C194.585 17.5109 194.127 17.0428 193.503 16.6854C192.897 16.3279 192.213 16.1492 191.451 16.1492C190.239 16.1492 189.252 16.5407 188.49 17.3237C187.728 18.1066 187.347 19.1194 187.347 20.3619C187.347 21.6044 187.728 22.6171 188.49 23.4001C189.252 24.183 190.239 24.5745 191.451 24.5745C192.248 24.5745 192.958 24.3958 193.581 24.0384C194.205 23.6639 194.672 23.1788 194.984 22.5831L197.789 23.0427C197.304 24.3873 196.464 25.4256 195.269 26.1575C194.075 26.8894 192.741 27.2553 191.269 27.2553Z" fill="white"/>
<path d="M205.984 27H202.997V16.4045H198.321V13.7238H210.659V16.4045H205.984V27Z" fill="white"/>
<path d="M222.033 20.1066C222.725 20.3278 223.297 20.7278 223.747 21.3065C224.197 21.8682 224.422 22.5405 224.422 23.3235C224.422 24.0213 224.214 24.6511 223.799 25.2128C223.383 25.7745 222.795 26.217 222.033 26.5404C221.288 26.8468 220.44 27 219.487 27H212.734V13.7238H219.202C220.119 13.7238 220.942 13.8769 221.669 14.1833C222.396 14.4897 222.959 14.9152 223.357 15.4599C223.756 15.9875 223.955 16.6003 223.955 17.2981C223.955 18.5747 223.314 19.5108 222.033 20.1066ZM215.721 16.1492V19.0343H219.202C219.721 19.0343 220.145 18.9066 220.474 18.6513C220.803 18.379 220.968 18.03 220.968 17.6045C220.968 17.179 220.803 16.8301 220.474 16.5577C220.145 16.2854 219.721 16.1492 219.202 16.1492H215.721ZM219.487 24.5745C220.076 24.5745 220.543 24.4298 220.89 24.1405C221.253 23.8341 221.435 23.4426 221.435 22.9661C221.435 22.4725 221.253 22.081 220.89 21.7916C220.543 21.4852 220.076 21.3321 219.487 21.3321H215.721V24.5745H219.487Z" fill="white"/>
<path d="M232.648 13.4685C234.38 13.4685 235.739 14.0046 236.726 15.0769C237.73 16.1322 238.232 17.6215 238.232 19.5449V27H236.025L235.401 24.9064C235.02 25.5362 234.457 26.0894 233.713 26.566C232.968 27.0255 232.085 27.2553 231.064 27.2553C230.163 27.2553 229.349 27.0766 228.622 26.7191C227.912 26.3617 227.358 25.8596 226.96 25.2128C226.561 24.566 226.362 23.8341 226.362 23.0171C226.362 21.7576 226.864 20.7534 227.869 20.0044C228.89 19.2385 230.371 18.8555 232.31 18.8555H235.219C235.15 17.9705 234.873 17.2726 234.388 16.762C233.921 16.2343 233.289 15.9705 232.492 15.9705C231.851 15.9705 231.297 16.1237 230.83 16.4301C230.362 16.7364 230.016 17.1109 229.791 17.5534L227.038 17.0939C227.367 15.9705 228.042 15.0854 229.064 14.4386C230.102 13.7918 231.297 13.4685 232.648 13.4685ZM231.765 24.7788C232.804 24.7788 233.644 24.4469 234.284 23.7831C234.925 23.1192 235.245 22.2427 235.245 21.1533H232.414C230.388 21.1533 229.375 21.732 229.375 22.8895C229.375 23.4682 229.592 23.9277 230.025 24.2681C230.457 24.6086 231.038 24.7788 231.765 24.7788Z" fill="white"/>
<path d="M0 17.28C0 9.1332 0 5.0616 2.5747 2.5308C5.14939 0 9.29161 0 17.5797 0H19.0447C27.3328 0 31.475 0 34.0497 2.5308C36.6244 5.0616 36.6244 9.1332 36.6244 17.28V18.72C36.6244 26.8668 36.6244 30.9384 34.0497 33.4692C31.475 36 27.3328 36 19.0447 36H17.5797C9.29161 36 5.14939 36 2.5747 33.4692C0 30.9384 0 26.8668 0 18.72V17.28Z" fill="#0077FF"/>
<path d="M14.5581 9.3528C15.9389 9.3528 17.1914 9.6876 18.3048 10.2708C19.4219 9.684 20.6817 9.3528 22.0698 9.3528C26.3695 9.3528 29.988 12.7692 29.988 17.1252C29.988 17.8848 29.9038 18.5976 29.739 19.2816L36.6134 13.7952C36.5621 7.9164 36.2288 4.6728 34.0496 2.5308C31.4749 0 27.3327 0 19.0446 0H17.5797C9.29155 0 5.14933 0 2.57463 2.5308C0.395482 4.6728 0.0621995 7.9164 0.0109253 13.7952L6.89265 19.2852C6.72418 18.6012 6.63994 17.8848 6.63994 17.1252C6.63994 12.7692 10.2584 9.3528 14.5581 9.3528Z" fill="#FF22A6"/>
<path d="M18.8213 25.6821L20.9015 24.0945C24.9888 20.9517 26.3256 19.7025 26.3256 17.1249C26.3256 14.8281 24.4065 12.9741 22.0698 12.9741C21.385 12.9741 20.744 13.1181 20.1471 13.4061H20.1434C19.4805 13.7265 18.8689 14.2269 18.3122 14.9073C17.7299 14.2089 17.0963 13.7013 16.4114 13.3809C15.8291 13.1073 15.2138 12.9741 14.5582 12.9741C12.2215 12.9741 10.3024 14.8281 10.3024 17.1249C10.3024 19.7025 11.6392 20.9517 15.7265 24.0945L17.8068 25.6821C18.1034 25.9089 18.5246 25.9089 18.8213 25.6821Z" fill="#FF22A6"/>
<path d="M22.0698 9.35297C20.6817 9.35297 19.4219 9.68417 18.3048 10.271C17.1914 9.68777 15.9389 9.35297 14.5581 9.35297C10.2584 9.35297 6.63995 12.7694 6.63995 17.1254C6.63995 17.8886 6.72419 18.6014 6.89266 19.2854C7.18932 20.4986 7.757 21.611 8.63965 22.6838C9.79698 24.0914 11.5147 25.445 13.4777 26.9534L13.4887 26.9606H13.4924L15.5726 28.5482C17.1878 29.7794 19.4438 29.7794 21.059 28.5482L23.1392 26.9606L23.1502 26.9534C25.1133 25.445 26.831 24.0914 27.9883 22.6838C28.871 21.611 29.4423 20.495 29.739 19.2818C29.9038 18.5978 29.988 17.885 29.988 17.1254C29.988 12.7694 26.3695 9.35297 22.0698 9.35297ZM14.5581 12.9746C15.2137 12.9746 15.829 13.1078 16.4113 13.3814C17.0962 13.7018 17.7298 14.2094 18.3122 14.9078C18.8688 14.2274 19.4805 13.727 20.1434 13.4066H20.147C20.744 13.1186 21.3849 12.9746 22.0698 12.9746C24.4064 12.9746 26.3256 14.8286 26.3256 17.1254C26.3256 19.703 24.9888 20.9522 20.9015 24.095L18.8212 25.6826C18.5246 25.9094 18.1034 25.9094 17.8067 25.6826L15.7265 24.095C11.6392 20.9522 10.3024 19.703 10.3024 17.1254C10.3024 14.8286 12.2215 12.9746 14.5581 12.9746Z" fill="white"/>
</svg>
