<svg width="820" height="233" viewBox="0 0 820 233" fill="none" xmlns="http://www.w3.org/2000/svg">
<path opacity="0.6" d="M542.422 12.7382L545.311 17.0071C548.678 21.9814 553.376 25.9078 558.869 28.3374L563.583 30.4224L559.314 33.3114C554.34 36.6777 550.413 41.376 547.984 46.8689L545.899 51.5829L543.01 47.314C539.643 42.3398 534.945 38.4133 529.452 35.9837L524.738 33.8987L529.007 31.0098C533.981 27.6435 537.908 22.9452 540.337 17.4522L542.422 12.7382Z" fill="white"/>
<path opacity="0.6" d="M50.8588 29.712L58.5726 27.8723C67.5609 25.7286 75.7645 21.0986 82.2451 14.5117L87.8067 8.85881L89.6464 16.5726C91.7901 25.5609 96.4201 33.7645 103.007 40.245L108.66 45.8067L100.946 47.6464C91.9578 49.79 83.7543 54.4201 77.2737 61.007L71.7121 66.6599L69.8724 58.9461C67.7287 49.9578 63.0986 41.7542 56.5117 35.2736L50.8588 29.712Z" fill="white"/>
<path opacity="0.6" d="M229.126 205.488L231.59 207.485C234.462 209.812 237.93 211.285 241.599 211.733L244.748 212.119L242.75 214.583C240.423 217.454 238.951 220.923 238.502 224.591L238.117 227.74L235.653 225.743C232.781 223.415 229.313 221.943 225.644 221.494L222.495 221.109L224.493 218.645C226.82 215.773 228.292 212.305 228.741 208.636L229.126 205.488Z" fill="white"/>
<path opacity="0.6" d="M254.022 22.2275L256.105 22.5913C258.532 23.0152 261.03 22.7475 263.312 21.8186L265.271 21.0215L264.907 23.1046C264.483 25.532 264.751 28.0297 265.68 30.312L266.477 32.2707L264.394 31.9069C261.966 31.483 259.469 31.7507 257.186 32.6796L255.228 33.4767L255.591 31.3936C256.015 28.9662 255.748 26.4685 254.819 24.1862L254.022 22.2275Z" fill="white"/>
<path opacity="0.6" d="M754.106 201.204L755.137 204.204C756.339 207.699 758.5 210.786 761.374 213.111L763.84 215.106L760.84 216.137C757.345 217.339 754.258 219.5 751.933 222.373L749.938 224.84L748.907 221.84C747.705 218.344 745.544 215.258 742.67 212.933L740.204 210.938L743.204 209.907C746.699 208.705 749.786 206.544 752.111 203.67L754.106 201.204Z" fill="white"/>
<circle opacity="0.6" cx="576.66" cy="53.6606" r="5" fill="white"/>
<circle opacity="0.6" cx="269.461" cy="221.454" r="5" fill="white"/>
<circle opacity="0.6" cx="680" cy="84" r="8" fill="white"/>
<circle opacity="0.6" cx="12" cy="100" r="12" fill="white"/>
<circle opacity="0.6" cx="35" cy="205" r="4" fill="white"/>
<circle opacity="0.6" cx="770" cy="201" r="4" fill="white"/>
<circle opacity="0.6" cx="552" cy="227" r="4" fill="white"/>
<path opacity="0.6" d="M294.951 45.4936L297.637 42.5659C302.909 36.7774 304.579 34.5449 303.945 30.5923C303.381 27.0703 300.087 24.6823 296.631 25.2364C295.618 25.3988 294.705 25.7716 293.893 26.3547L293.888 26.3556C292.986 27.0041 292.205 27.9165 291.549 29.0918C290.516 28.1589 289.454 27.5308 288.362 27.2019C287.434 26.9204 286.491 26.8621 285.522 27.0175C282.066 27.5716 279.683 30.8696 280.248 34.3916C280.882 38.3442 283.166 39.9428 289.983 43.793L293.45 45.7342C293.945 46.0116 294.568 45.9117 294.951 45.4936Z" fill="white"/>
<path opacity="0.6" d="M299.091 208.656L303.508 205.73C312.191 199.934 315.069 197.582 315.519 192.263C315.921 187.524 312.425 183.376 307.775 182.982C306.413 182.867 305.112 183.056 303.874 183.55L303.866 183.549C302.491 184.098 301.187 185.028 299.96 186.338C298.923 184.799 297.751 183.645 296.444 182.868C295.333 182.206 294.132 181.827 292.827 181.717C288.177 181.323 284.035 184.825 283.633 189.564C283.183 194.883 285.625 197.686 293.21 204.859L297.073 208.485C297.623 209.003 298.461 209.074 299.091 208.656Z" fill="white"/>
<path opacity="0.6" d="M769.91 112.676L780.981 108.259C802.765 99.474 810.185 95.6127 813.616 84.1041C816.673 73.8492 810.877 63.1075 800.815 60.1076C797.866 59.2283 794.914 59.0484 791.96 59.5679L791.945 59.5632C788.663 60.1426 785.364 61.5916 782.061 63.9148C780.483 60.0489 778.43 56.9691 775.907 54.6593C773.764 52.6901 771.292 51.3054 768.469 50.4637C758.407 47.4639 747.675 53.2778 744.617 63.5327C741.186 75.0414 745.28 82.3351 758.697 101.615L765.541 111.374C766.517 112.767 768.33 113.308 769.91 112.676Z" fill="white"/>
<path opacity="0.6" d="M49.4911 191.32L51.6343 187.975C55.8332 181.366 57.0946 178.88 55.791 175.095C54.6295 171.722 50.974 169.936 47.6649 171.076C46.695 171.41 45.8601 171.934 45.1603 172.648L45.1551 172.65C44.3784 173.444 43.7653 174.477 43.321 175.747C42.1431 175.006 40.9891 174.569 39.8572 174.433C38.8941 174.315 37.9554 174.42 37.0269 174.74C33.7178 175.879 31.9376 179.538 33.0992 182.91C34.4028 186.695 36.9277 187.877 44.3054 190.499L48.0544 191.815C48.5892 192.004 49.1857 191.798 49.4911 191.32Z" fill="white"/>
</svg>
